<?xml version="1.0" encoding="utf-8" ?><svg xmlns="http://www.w3.org/2000/svg" xmlns:xlink="http://www.w3.org/1999/xlink" width="1992" height="2046" viewBox="0 0 1992 2046"><path d="M769.455 0L770.033 0C787.876 11.8059 810.797 24.312 829.804 34.9036C885.442 65.9082 940.365 100.441 996.043 130.966L1147.56 43.321L1196.33 15.1832C1203.56 11.0106 1215.52 4.55133 1222 0L1222.62 0C1241.36 12.0291 1265.11 24.8211 1284.74 36.094L1380.45 91.4477L1626.81 233.735C1672.16 259.945 1722.16 287.57 1766.6 314.686L1766.67 574.228L1914.52 659.777C1938.28 673.491 1968.97 689.971 1991.57 704.463C1990.38 736.449 1991.17 773.334 1991.16 805.741L1991.13 989.286L1991.11 1218.24C1991.11 1257.11 1990.34 1299 1991.2 1337.68L1766.62 1467.29C1766.4 1553.07 1765.25 1642.71 1766.73 1728.2L1398.7 1940.84L1286.79 2005.49C1266.13 2017.31 1236.47 2033.28 1217.34 2046L1216.44 2046C1211.91 2042.53 1197.65 2034.6 1192.26 2031.49L1146.83 2005.29L996.115 1918.13C924.029 1958.9 846.014 2003.59 775.091 2046L774.518 2046C768.591 2041.24 733.122 2021.53 725.191 2016.95L616.524 1954.25L225.24 1728.17C224.676 1698.57 225.315 1666.9 225.359 1637.09L225.405 1467.41C152.871 1423.76 74.4765 1380.18 0.843875 1337.65L0.696305 1237.14C0.669862 1221.78 1.48039 1192.85 0 1178.52L0 704.404C21.6913 693.525 53.8628 673.403 76.0395 660.594L225.304 574.266C223.58 489.367 225.804 400.085 225.151 314.533L565.311 118.061L693.484 44.0413C717.257 30.3681 746.662 14.5238 769.455 0ZM104.588 766.239L104.569 956.363L248.37 873.29C274.185 858.383 302.465 841.32 328.6 827.314L328.673 949.164C255.311 991.527 176.733 1035.12 104.535 1078.63L104.577 1275.52L278.732 1376.2L500.583 1248.06C500.592 1205.6 500.21 1162.35 500.685 1119.95L390.981 1183.34C370.831 1194.98 349.007 1208.17 328.598 1219.08L328.563 1097.15L360.858 1078.6L520.977 986.173C548.321 970.382 577.277 954.253 604.255 938.042L604.319 1248.58L944.27 1444.97L944.179 1053.66L483.866 787.628L358.951 715.531C347.258 708.792 334.133 699.985 322.775 694C306.635 685.494 291.457 676.613 275.745 667.387L104.588 766.239ZM1047.75 1053.61L1047.69 1445.18L1387.65 1248.88L1387.65 938.177C1414.57 952.643 1442.74 969.938 1469.39 985.303L1633.54 1080.05C1643.12 1085.59 1654.1 1091.63 1663.4 1097.41L1663.39 1219.17C1606.52 1187.7 1547.74 1152.66 1491.32 1119.93L1491.37 1248.07L1638.82 1333.3C1663.04 1347.27 1688.83 1362.77 1713.24 1376.13L1827.91 1309.79C1846.8 1298.87 1868.38 1285.71 1887.34 1275.58L1887.33 1078.66L1663.28 949.228L1663.32 827.166C1737.9 868.694 1813.26 913.808 1887.47 956.415L1887.32 766.299C1831.85 734.143 1770.85 700.544 1716.46 667.446L1047.75 1053.61ZM1047.82 223.199L1047.69 471.479L1445.95 701.54L1663.29 575.91L1663.31 376.999L1557.14 315.613C1539.66 305.524 1519.6 293.25 1501.97 283.86C1500.05 282.735 1499.08 281.561 1497.76 282.236C1482.81 289.878 1464.78 300.765 1450.53 309.007L1328.77 379.335L1491.34 473.205L1491.28 595.091L1117.79 379.437C1147.36 360.903 1182.8 341.47 1213.49 323.73L1392.39 220.411C1376.74 211.377 1229.75 124.178 1221.63 122.704L1047.82 223.199ZM1491.36 1565.46L1379 1630.35C1360.62 1640.96 1339.84 1652.34 1321.9 1663.38L1494.85 1763.26L1663.28 1665.89L1663.3 1469.7L1511.54 1381.87C1489.73 1369.27 1461.11 1353.8 1440.15 1340.53L1178.85 1491.48C1137.17 1515.55 1088.2 1542.21 1047.74 1567.34L1047.68 1738.21C1047.69 1766.8 1047.17 1797.2 1047.82 1825.67C1102.83 1857.65 1161.84 1893.04 1217.4 1923.46L1388.98 1824.26L1110.59 1663.46C1134.04 1649.63 1157.59 1635.98 1181.25 1622.52L1491.31 1443.46L1491.36 1565.46ZM599.489 220.344L874.275 379.264C766.78 442.963 657.175 503.763 549.404 567.041C533.31 576.491 516.961 585.925 500.686 595.04L500.576 473.16L662.962 379.35L493.889 281.578L486.133 286.042L328.604 376.928L328.68 575.797L546.072 701.461L944.191 471.576L944.163 223.257L820.46 151.62C812.269 146.886 773.9 123.978 768.725 122.819C712.732 155.143 655.829 188.799 599.489 220.344ZM881.733 1663.38L602.961 1824.28L774.656 1923.53L882.1 1861.56C902.099 1850.01 924.723 1837.62 944.241 1825.63L944.204 1567.19L551.955 1340.58L403.853 1426.12C379.625 1440.11 352.855 1456.4 328.611 1469.49L328.633 1665.81L497.313 1763.21C553.625 1730.68 614.76 1696.87 670.089 1663.37L500.597 1565.5L500.561 1443.29L809.553 1621.77C833.462 1635.56 857.703 1649.9 881.733 1663.38ZM1340.34 762.507L1113.23 631.395C1074.65 609.111 1034.09 586.484 996.047 563.649L651.932 762.462L879.307 893.939L956.54 938.502C968.312 945.29 984.304 955.173 996.054 961.229L1340.34 762.507Z"/></svg>